<svg width="28" height="28" viewBox="0 0 28 28" fill="none" xmlns="http://www.w3.org/2000/svg">
<path d="M28 14C28 6.26773 21.7323 -1.90735e-06 14 -1.90735e-06C6.26773 -1.90735e-06 0 6.26773 0 14C0 21.7323 6.26773 28 14 28C21.7323 28 28 21.7323 28 14Z" fill="white"/>
<path d="M19.8075 15.6572H16.4727C16.0238 15.6572 15.6596 16.0214 15.6596 16.4707V19.8054C15.6596 20.722 14.9167 21.4648 14.0001 21.4648C13.0839 21.4648 12.341 20.722 12.341 19.8054V16.4707C12.341 16.0218 11.9768 15.6572 11.5275 15.6572H8.19271C7.27607 15.6572 6.5332 14.9143 6.5332 13.9982C6.5332 13.082 7.27607 12.3392 8.19271 12.3392H11.5275C11.9764 12.3392 12.341 11.975 12.341 11.5257V8.19096C12.341 7.27436 13.0839 6.53151 14.0001 6.53151C14.9167 6.53151 15.6596 7.27436 15.6596 8.19096V11.5257C15.6596 11.9745 16.0238 12.3392 16.4727 12.3392H19.8075C20.7237 12.3392 21.4665 13.082 21.4665 13.9982C21.4665 14.9143 20.7237 15.6572 19.8075 15.6572Z" fill="#AFAFAF"/>
</svg>
