<svg width="60" height="60" viewBox="0 0 60 60" fill="none" xmlns="http://www.w3.org/2000/svg">
<circle cx="30" cy="30" r="30" fill="#929CFF"/>
<g clip-path="url(#clip0)">
<path d="M11.9807 29.2377C12.0663 29.0995 14.1133 25.8254 17.3943 22.6438C20.2999 19.8269 24.8457 16.4688 30.0001 16.4688C35.1546 16.4688 39.7011 19.8269 42.6068 22.6446C45.8961 25.8337 47.934 29.1003 48.0195 29.2377C48.3077 29.7 48.3077 30.2963 48.0203 30.7578C47.9348 30.8952 45.8944 34.1643 42.6068 37.3517C39.7011 40.1694 35.1554 43.5276 30.0001 43.5276C20.0151 43.5276 12.3038 31.28 11.9807 30.7586C11.6934 30.2963 11.6934 29.7 11.9807 29.2377ZM15.0209 30.1423C15.9767 31.4974 17.9706 34.111 20.5889 36.3922C23.8359 39.2215 27.0023 40.6558 30.0001 40.6558C32.9979 40.6558 36.1644 39.2215 39.4113 36.3922C42.0296 34.111 44.0243 31.4974 44.9801 30.1423L45.0823 29.9982L44.9801 29.8541C44.0243 28.499 42.0305 25.8854 39.4113 23.6033C36.1644 20.7739 32.9979 19.3397 30.0001 19.3397C27.0023 19.3397 23.8359 20.7739 20.5889 23.6033C17.9697 25.8854 15.9759 28.499 15.0209 29.8541L14.9188 29.9982L15.0209 30.1423Z" fill="white"/>
<path d="M30 20.5547C35.191 20.5547 39.4137 24.7908 39.4137 29.9971C39.4137 35.2035 35.191 39.4387 30 39.4387C24.809 39.4387 20.5863 35.2035 20.5863 29.9971C20.5863 24.7908 24.809 20.5547 30 20.5547ZM30 36.5678C33.6123 36.5678 36.5512 33.6202 36.5512 29.9971C36.5512 26.3741 33.6123 23.4265 30 23.4265C26.3877 23.4265 23.4488 26.3741 23.4488 29.9971C23.4488 33.6202 26.3877 36.5678 30 36.5678Z" fill="white"/>
<path d="M30 26.875C31.7156 26.875 33.1116 28.2751 33.1116 29.9967C33.1116 31.7174 31.7156 33.1175 29.9991 33.1175C28.2827 33.1175 26.8867 31.7174 26.8867 29.9967C26.8884 28.2751 28.2843 26.875 30 26.875Z" fill="white"/>
</g>
<path d="M47.8697 39.7914C47.6771 39.9844 47.4421 40.0792 47.2087 40.0792C46.9157 40.0792 46.6252 39.9308 46.422 39.6438L43.7282 35.8352C42.554 37.1058 41.0712 38.3708 39.2335 39.4095L40.7701 43.8408C40.9863 44.4651 40.7366 45.1803 40.2119 45.4381C40.0838 45.5014 39.9508 45.5314 39.8202 45.5314C39.4162 45.5314 39.0335 45.246 38.8695 44.7749L37.3321 40.3411C35.4527 41.1244 33.2665 41.6555 30.7384 41.7699V46.506C30.7384 47.1815 30.2781 47.7296 29.711 47.7296C29.143 47.7296 28.6836 47.1823 28.6836 46.506V41.7699C26.3791 41.6653 24.3618 41.212 22.5999 40.539L21.1311 44.774C20.967 45.246 20.5843 45.5306 20.1804 45.5306C20.0498 45.5306 19.9168 45.5006 19.7887 45.4373C19.2639 45.1795 19.0142 44.4643 19.2305 43.84L20.6749 39.6738C18.7841 38.6821 17.2508 37.4456 16.0259 36.1831L13.5785 39.643C13.3753 39.93 13.0848 40.0784 12.7919 40.0784C12.5577 40.0784 12.3235 39.9835 12.1309 39.7906C11.6967 39.3551 11.6412 38.584 12.0068 38.0667L14.5464 34.4763C12.7062 32.0948 11.922 30.0036 11.8485 29.8009C11.6241 29.1806 11.8657 28.4606 12.3871 28.1938C12.9086 27.9262 13.5133 28.2141 13.7368 28.8352C13.8062 29.0249 14.6068 31.1258 16.5253 33.4011C16.5514 33.423 16.58 33.4408 16.6053 33.4659C16.673 33.534 16.7285 33.6119 16.7774 33.6938C18.0986 35.193 19.9094 36.732 22.3192 37.8267C22.3519 37.838 22.3845 37.8453 22.4163 37.8616C22.4294 37.868 22.44 37.8778 22.4522 37.8851C24.4475 38.7697 26.8442 39.3511 29.711 39.3511C41.7493 39.3511 45.6468 28.9406 45.6851 28.836C45.9095 28.2157 46.5142 27.927 47.0349 28.1946C47.5563 28.4614 47.7971 29.1806 47.5735 29.8017C47.5041 29.9931 46.7999 31.8694 45.1735 34.0814L47.9929 38.0675C48.3593 38.584 48.3038 39.356 47.8697 39.7914Z" fill="white"/>
<defs>
<clipPath id="clip0">
<rect width="36.4706" height="27.0588" fill="white" transform="matrix(-1 0 0 1 48.2354 16.4688)"/>
</clipPath>
</defs>
</svg>
