<svg width="28" height="28" viewBox="0 0 28 28" fill="none" xmlns="http://www.w3.org/2000/svg">
<path d="M28 14C28 6.26773 21.7323 -1.90735e-06 14 -1.90735e-06C6.26773 -1.90735e-06 0 6.26773 0 14C0 21.7323 6.26773 28 14 28C21.7323 28 28 21.7323 28 14Z" fill="white"/>
<path d="M19.7743 15.6924H16.4395C15.9906 15.6924 15.3103 15.6924 15.3103 15.6924H14.3136C13.9022 15.6924 14.6304 15.6924 13.7137 15.6924C12.7976 15.6924 13.3242 15.6924 13 15.6924H12.5616C12.2259 15.6924 11.9436 15.6924 11.4943 15.6924H8.1595C7.24287 15.6924 6.5 14.9495 6.5 14.0334C6.5 13.1172 7.24287 12.3744 8.1595 12.3744H11.4943C11.9432 12.3744 11.8667 12.3744 12.1053 12.3744C12.5273 12.3744 13.186 12.3744 13.186 12.3744C13.8782 12.3744 12.8855 12.3744 13.8017 12.3744C14.7183 12.3744 14.1284 12.3744 14.5682 12.3744H15.4101C15.8248 12.3744 15.9906 12.3744 16.4395 12.3744H19.7743C20.6905 12.3744 21.4333 13.1172 21.4333 14.0334C21.4333 14.9495 20.6905 15.6924 19.7743 15.6924Z" fill="#AFAFAF"/>
</svg>
