<svg width="60" height="60" viewBox="0 0 60 60" fill="none" xmlns="http://www.w3.org/2000/svg">
<path d="M60 30C60 13.4309 46.5691 -3.8147e-06 30 -3.8147e-06C13.4309 -3.8147e-06 0 13.4309 0 30C0 46.5691 13.4309 60 30 60C46.5691 60 60 46.5691 60 30Z" fill="#929CFF"/>
<path d="M39.0419 21.3248C39.0419 22.3425 38.29 22.9624 37.7354 23.4158C37.5287 23.5916 37.1433 23.9062 37.1433 24.0172C37.1433 24.4798 36.7674 24.8406 36.3068 24.8406H36.2974C35.8369 24.8406 35.4515 24.4891 35.4515 24.0264C35.4421 23.129 36.1094 22.5831 36.6546 22.139C37.0775 21.7874 37.3501 21.5468 37.3501 21.3248C37.3501 20.8714 36.9741 20.5013 36.5136 20.5013C36.0531 20.5013 35.6771 20.8714 35.6771 21.3248C35.6771 21.7874 35.3012 22.1575 34.8312 22.1575C34.3613 22.1575 33.9853 21.7874 33.9853 21.3248C33.9853 19.9554 35.1226 18.8359 36.5136 18.8359C37.914 18.8451 39.0419 19.9554 39.0419 21.3248ZM36.3256 25.6178C35.8557 25.6178 35.4985 25.9879 35.4985 26.4506V26.4598C35.4985 26.9224 35.8557 27.2925 36.3256 27.2925C36.7956 27.2925 37.1715 26.9132 37.1715 26.4598C37.1715 26.0064 36.7956 25.6178 36.3256 25.6178ZM19.2762 31.4191C18.8063 31.4191 18.4303 31.7892 18.4303 32.2518C18.4303 32.7144 18.8063 33.0845 19.2762 33.0845H19.3514C19.8213 33.0845 20.1973 32.7144 20.1973 32.2518C20.1973 31.7892 19.8213 31.4191 19.3514 31.4191H19.2762ZM22.218 31.4191C21.7481 31.4191 21.3721 31.7892 21.3721 32.2518C21.3721 32.7144 21.7481 33.0845 22.218 33.0845H22.2838C22.7538 33.0845 23.1297 32.7144 23.1297 32.2518C23.1297 31.7892 22.7538 31.4191 22.2838 31.4191H22.218ZM47.0591 18.1235V27.4961C47.0591 29.7166 45.2545 31.5116 42.9988 31.5116H32.0304C31.8142 31.5116 31.6356 31.5116 31.4946 31.5116C31.3443 31.5116 31.1657 31.5116 31.0999 31.5116C31.0247 31.5578 30.8555 31.7151 30.6863 31.8632C30.6206 31.9187 30.5454 31.9927 30.4608 32.0575L27.3592 34.8424C27.1148 35.0645 26.7482 35.12 26.4381 34.9905C26.1279 34.8609 25.9118 34.5556 25.9118 34.2318V25.405H17.0487C15.7329 25.405 14.6332 26.4691 14.6332 27.7736V37.1463C14.6332 38.4508 15.7329 39.4686 17.0487 39.4686H29.3047C29.5115 39.4686 29.7089 39.5611 29.8686 39.6999L32.3969 41.9945V34.0837C32.3969 33.6211 32.7729 33.251 33.2428 33.251C33.7128 33.251 34.0887 33.6211 34.0887 34.0837V43.882C34.0887 44.2151 33.9007 44.5019 33.5906 44.6407C33.4778 44.6869 33.3744 44.7054 33.2522 44.7054C33.0454 44.7054 32.8387 44.6222 32.6789 44.4834L28.9758 41.134H17.0487C14.793 41.134 12.9414 39.3668 12.9414 37.1463V27.7736C12.9414 25.5531 14.793 23.7396 17.0487 23.7396H25.9118V18.1235C25.9118 15.9029 27.7821 14.1172 30.0378 14.1172H42.9988C45.2545 14.1172 47.0591 15.9029 47.0591 18.1235ZM45.3673 18.1235C45.3673 16.8189 44.3146 15.7826 42.9988 15.7826H30.0378C28.7126 15.7826 27.6035 16.8189 27.6035 18.1235V24.5816V32.3443L29.3047 30.8269C29.3799 30.7529 29.4739 30.6881 29.5397 30.6326C30.3198 29.9294 30.5172 29.8184 31.5322 29.8369C31.6732 29.8369 31.833 29.8369 32.0398 29.8369H43.0082C44.3334 29.8369 45.3767 28.7821 45.3767 27.4868L45.3673 18.1235Z" fill="white"/>
</svg>
