<svg width="30" height="30" viewBox="0 0 30 30" fill="none" xmlns="http://www.w3.org/2000/svg">
<path d="M15 30C23.2843 30 30 23.2843 30 15C30 6.71573 23.2843 0 15 0C6.71573 0 0 6.71573 0 15C0 23.2843 6.71573 30 15 30Z" fill="white"/>
<mask id="mask0" mask-type="alpha" maskUnits="userSpaceOnUse" x="0" y="0" width="30" height="30">
<path d="M15 30C23.2843 30 30 23.2843 30 15C30 6.71573 23.2843 0 15 0C6.71573 0 0 6.71573 0 15C0 23.2843 6.71573 30 15 30Z" fill="#B5BCFF"/>
</mask>
<g mask="url(#mask0)">
<path d="M15.4424 23.597L12.3496 19.0783L9.37421 20.1367L12.7118 24.9332C12.8457 25.1045 13.086 25.165 13.3016 25.0883L15.2205 24.4057C15.5516 24.3123 15.6656 23.8825 15.4424 23.597Z" fill="#324A5E"/>
<path d="M20.541 10.2578L22.3176 15.243C23.0488 14.5695 23.3061 13.3836 22.8985 12.2398C22.4832 11.0744 21.5121 10.3257 20.541 10.2578Z" fill="#324A5E"/>
<path d="M7.60292 14.1319C6.37375 14.5692 5.72196 15.9444 6.16835 17.1966L6.78406 18.9238C7.23045 20.1761 8.6057 20.8303 9.85643 20.3854L14.3634 18.7822L12.1314 12.5211L7.60292 14.1319Z" fill="#E6E9EE"/>
<path d="M18.0539 5.47626C16.0669 9.4422 12.1354 12.519 12.1354 12.519L13.251 15.6487L14.3666 18.7784C14.3666 18.7784 19.3891 18.6942 23.4088 20.499C23.8691 20.7001 24.345 20.2633 24.1757 19.7884L21.6368 12.6656L19.0978 5.5427C18.9286 5.06784 18.2834 5.0298 18.0539 5.47626Z" fill="#FFD05B"/>
<path d="M18.0475 5.04041C17.6167 5.19374 17.3951 5.66166 17.5488 6.09322L22.6223 20.3348C22.776 20.7663 23.2436 20.9889 23.6744 20.8356C24.1051 20.6823 24.3268 20.2143 24.173 19.7828L19.0996 5.54123C18.9458 5.10967 18.4782 4.88708 18.0475 5.04041Z" fill="#E6E9EE"/>
</g>
</svg>
