<svg width="60" height="60" viewBox="0 0 60 60" fill="none" xmlns="http://www.w3.org/2000/svg">
<mask id="mask0" mask-type="alpha" maskUnits="userSpaceOnUse" x="0" y="0" width="60" height="60">
<path d="M60 30C60 46.5685 46.5685 60 30 60C13.4315 60 0 46.5685 0 30C0 13.4315 13.4315 0 30 0C46.5685 0 60 13.4315 60 30Z" fill="#E7B3FF"/>
</mask>
<g mask="url(#mask0)">
<path d="M60 30C60 46.5685 46.5685 60 30 60C13.4315 60 0 46.5685 0 30C0 13.4315 13.4315 0 30 0C46.5685 0 60 13.4315 60 30Z" fill="#B3FAFF"/>
<path d="M25.0144 40.5116C25.0144 40.5116 22.2079 43.556 23.1852 45.6266C23.3104 45.8855 23.4357 46.1073 23.5861 46.2922C24.5884 47.611 26.0293 47.3152 27.2572 46.588C28.1593 46.058 26.969 43.6792 26.0042 42.0646C25.478 41.1772 25.0144 40.5116 25.0144 40.5116Z" fill="#954D3B"/>
<path d="M26.0044 42.0771C26.9692 43.6918 28.1595 46.0706 27.2574 46.6006C26.0295 47.3278 24.9144 47.4757 24.3506 46.921C24.3506 46.921 24.2629 42.7797 25.7539 42.2251L26.0044 42.0771Z" fill="#703A2C"/>
<path d="M33.7602 35.9747C33.7602 35.9747 33.9231 35.4817 34.4242 34.8407C34.9254 34.1874 36.0781 31.266 36.5667 29.8114C37.0679 28.3446 37.7194 27.7036 37.5566 26.2367C37.5566 26.2367 37.306 24.0426 37.4689 23.229C37.6317 22.4155 37.7696 20.924 37.6067 20.0611C37.4438 19.1983 37.3812 17.9533 37.4438 17.5218C37.4939 17.0904 37.3937 16.0057 36.5041 15.9564C35.6271 15.9071 34.0859 16.6097 33.5347 19.9625C33.5347 19.9625 33.5347 21.0472 33.6975 21.6389C33.8604 22.2306 33.6474 24.4494 33.4219 24.6713C33.1964 24.8931 32.7578 25.0534 32.2692 24.3508C31.768 23.6481 30.7782 22.4032 30.5026 22.1813C30.2269 21.9594 29.1243 19.8023 28.6858 19.1489C28.2473 18.4956 27.1948 15.9564 26.6561 15.3031C26.1048 14.6497 25.2277 13.6266 25.0022 12.9733C24.7767 12.32 23.4611 9.73145 21.92 9.99031C20.3789 10.2615 21.1557 12.3693 21.4815 13.1829C21.8072 13.9964 23.0226 15.7222 23.1353 16.1043C23.2481 16.4864 24.6263 19.7283 24.902 20.1104C25.1776 20.4925 24.6263 20.6035 24.6263 20.6035C24.6263 20.6035 23.9623 20.0611 23.5237 18.8161C23.0852 17.5711 21.8699 15.7838 21.3186 15.0812C20.7673 14.3786 20.1659 13.2938 20.003 12.7515C19.8401 12.2091 18.4619 9.23838 16.8707 9.941C15.2795 10.6436 16.144 12.4803 16.2567 12.8008C16.3695 13.1213 17.7979 15.1305 17.848 15.451C17.8981 15.7715 19.7775 19.4571 20.429 20.3816C21.0931 21.3061 21.5316 22.169 21.3687 22.2183C21.2058 22.2676 20.3789 20.3816 19.7775 19.5681C19.1761 18.7545 18.0109 17.189 17.9607 16.7576C17.9106 16.3262 16.6953 12.8624 15.1542 13.1829C13.6131 13.5034 14.1644 15.451 14.7156 16.4864C15.2669 17.5095 16.144 19.3585 16.4823 20.4432C16.808 21.528 18.7376 24.2275 18.7877 24.4001C18.8378 24.5603 19.0132 24.9917 18.8378 25.152C18.6749 25.3122 16.6953 22.5511 16.357 22.2306C16.0312 21.9101 15.5927 20.0611 14.8159 19.4201C14.0516 18.7668 13.3249 18.8778 13.1119 19.038C12.8864 19.1983 12.1722 19.7899 13.7759 22.9332C15.3797 26.0765 16.3069 27.5926 16.5324 27.9624C16.7579 28.3446 17.9607 32.4 19.339 34.2367C20.7172 36.0733 22.0328 36.9485 22.6968 37.9716C23.0852 38.5879 24.3006 41.7805 25.2403 44.4061C25.8793 46.2058 26.393 47.7343 26.418 47.9685C26.4681 48.5601 36.1157 42.7174 36.1157 42.7174C36.1157 42.7174 34.8878 40.4616 34.0358 38.6989C33.5472 37.7004 33.2841 36.5048 33.2089 36.6773C33.1337 36.8622 33.7602 35.9747 33.7602 35.9747Z" fill="#FFB583"/>
<path opacity="0.18" d="M34.0233 38.6997C34.8878 40.4624 36.1031 42.7182 36.1031 42.7182C36.1031 42.7182 26.4681 48.5733 26.418 47.9816C26.3929 47.7351 25.8918 46.2066 25.2402 44.4192C25.2402 44.4192 30.3271 43.4947 33.4595 39.0572L34.0233 38.6997Z" fill="#333333"/>
<path d="M22.998 45.0232C22.998 45.0232 22.146 47.5255 25.6918 53.96C27.1953 56.6841 26.3308 59.5069 27.4459 59.8767L51.001 60C51.001 60 47.6306 52.9985 46.0895 51.8398C44.5484 50.6934 42.5312 45.9477 41.6416 45.0232C40.752 44.0987 38.1334 42.7674 38.1334 42.2621C38.1334 41.7567 38.1334 41.0171 37.4818 40.3761C36.8303 39.7351 35.6526 39.4146 35.5147 38.675C35.3769 37.9354 34.2493 37.3807 33.4599 37.3807C33.4599 37.3807 34.0238 38.7613 33.6479 39.7721C33.272 40.7829 29.6636 46.5887 25.4537 47.2297C25.4287 47.242 23.5618 47.1434 22.998 45.0232Z" fill="#C6674E"/>
<path d="M35.4501 41.1526C35.4501 41.1526 36.3397 42.6316 35.6381 44.3818C34.9364 46.132 36.6154 45.3925 36.6154 44.2463C36.6154 43.1 36.4274 41.9414 36.2896 41.5223C36.1518 41.1156 35.3624 40.7951 35.4501 41.1526Z" fill="#954D3B"/>
<path opacity="0.15" d="M24.3125 38.5515C24.3125 38.5515 26.9437 39.1678 28.6978 38.305C30.4519 37.4423 32.206 37.4423 32.206 37.4423C32.206 37.4423 30.3266 38.1818 29.8254 38.6748C29.3242 39.1678 25.816 40.6468 24.3125 38.5515Z" fill="#333333"/>
<path opacity="0.15" d="M28.8225 23.2667C28.8225 23.2667 28.7723 23.3284 28.6972 23.427C28.4215 23.8091 27.77 24.7829 27.5695 25.732C27.0684 28.0741 27.0684 29.0602 27.0684 31.5255C27.0684 35.8398 29.8248 36.4562 29.8248 36.4562C29.8248 36.4562 29.8875 36.5794 28.9478 35.4084C28.0081 34.2374 28.0707 32.8198 28.0707 29.1835C28.0707 27.2112 28.3213 25.5471 28.6345 24.0063L28.8225 23.2667Z" fill="#333333"/>
<path opacity="0.15" d="M22.1831 31.0318C22.1831 31.0318 25.8166 25.2388 27.0695 24.1295L27.696 23.39C27.696 23.39 25.9419 23.6365 23.436 27.5806C20.9302 31.5248 21.6819 31.2783 22.1831 31.0318Z" fill="#333333"/>
<path opacity="0.1" d="M20.3027 29.3061C20.3027 29.3061 25.0639 24.2527 26.4421 23.2666C27.8203 22.2806 21.8063 26.1015 20.3027 29.3061Z" fill="#333333"/>
<path opacity="0.1" d="M33.6973 21.6273C33.6973 21.6273 34.875 21.9972 35.7145 21.9972C36.5539 21.9972 36.5539 22.6505 36.5539 22.6505C36.5539 22.6505 34.211 22.8971 33.7098 22.3177L33.6973 21.6273Z" fill="#333333"/>
<path opacity="0.1" d="M25.6914 20.0249C25.6914 20.0249 26.5309 19.2853 27.6961 19.199C27.6961 19.199 29.1996 19.4455 27.9467 19.6921C26.6938 19.9386 25.6914 20.0249 25.6914 20.0249Z" fill="#333333"/>
<path opacity="0.1" d="M23.7482 15.7476C23.7482 15.7476 24.5 15.1312 25.5023 15.0695C25.5023 15.0695 25.5023 14.3915 24.7506 14.6997C23.9988 15.0079 23.247 15.8092 23.7482 15.7476Z" fill="#333333"/>
<path opacity="0.1" d="M21.9822 21.9472C21.9822 21.9472 23.1975 20.9615 24.0245 20.7521C24.0245 20.7521 23.9869 20.3455 23.6862 20.4687C23.398 20.5919 21.9697 21.5775 21.8444 21.787C21.7191 21.9964 21.9822 21.9472 21.9822 21.9472Z" fill="#333333"/>
<path opacity="0.1" d="M19.7635 24.0926C19.7635 24.0926 20.7658 22.9462 21.054 22.7367C21.3422 22.5271 21.1417 22.2806 20.9287 22.4039C20.7157 22.5271 19.2122 24.0063 19.3375 24.2159C19.4753 24.4131 19.7635 24.0926 19.7635 24.0926Z" fill="#333333"/>
<path opacity="0.1" d="M18.3854 25.8184C18.3854 25.8184 17.7589 26.9648 17.596 27.3839C17.4332 27.7907 17.7213 26.5211 18.0095 26.065C18.2977 25.6089 18.2977 25.6089 18.2977 25.6089L18.3854 25.8184Z" fill="#333333"/>
<path opacity="0.1" d="M19.6388 17.226C19.6388 17.226 20.4281 16.5237 21.017 16.3266C21.6059 16.1171 21.4305 15.8337 21.1423 15.8707C20.8541 15.9077 19.4258 16.9426 19.4258 17.1397C19.4258 17.3492 19.6388 17.226 19.6388 17.226Z" fill="#333333"/>
<path opacity="0.1" d="M16.7197 18.7429C16.7197 18.7429 17.4715 17.7568 17.8098 17.5966C18.1481 17.4363 17.9351 17.1035 17.6845 17.2268C17.4339 17.35 16.3063 18.7429 16.4691 18.8292C16.632 18.9155 16.7197 18.7429 16.7197 18.7429Z" fill="#333333"/>
<path opacity="0.1" d="M16.0937 22.4902C16.0937 22.4902 15.2542 22.9833 15.0913 23.3901C14.9285 23.7969 14.6779 23.1435 15.0537 22.86C15.4171 22.5641 16.0937 22.2806 16.0937 22.4902Z" fill="#333333"/>
<path d="M9.75312 20.3818C9.85335 20.8995 9.94106 21.3925 10.0413 21.8732C10.129 22.3539 10.2418 22.8346 10.3545 23.303C10.4673 23.7713 10.6176 24.2274 10.768 24.6957C10.8056 24.8067 10.8557 24.9299 10.8933 25.0408L11.0311 25.3859L11.0938 25.5585C11.1188 25.6201 11.1439 25.6694 11.1689 25.7311C11.219 25.842 11.2692 25.9652 11.3193 26.0885C11.2065 26.0145 11.1063 25.9283 10.9935 25.8543C10.9434 25.8173 10.8933 25.768 10.8432 25.7311L10.7053 25.5832C10.6176 25.4845 10.5299 25.3859 10.4422 25.275C10.3671 25.1641 10.2919 25.0532 10.2167 24.9422C9.94106 24.4862 9.71553 23.9932 9.60277 23.4755C9.47747 22.9578 9.41483 22.4402 9.42735 21.9102C9.47747 21.3925 9.55265 20.8749 9.75312 20.3818Z" fill="#C2BAB0"/>
<path d="M8.33816 24.0187C8.53863 24.5117 8.70151 24.9801 8.87692 25.4361C9.05233 25.8921 9.24027 26.3482 9.44074 26.7919C9.62868 27.2356 9.85421 27.667 10.0923 28.0861C10.1549 28.1847 10.2176 28.2956 10.2802 28.4065L10.4807 28.7146L10.5809 28.8749C10.6185 28.9242 10.6561 28.9735 10.6937 29.0351C10.7688 29.146 10.844 29.2446 10.9067 29.3679C10.7814 29.3186 10.6686 29.257 10.5558 29.183C10.4932 29.146 10.4431 29.1214 10.3804 29.0844L10.2176 28.9612C10.1173 28.8749 10.0046 28.8009 9.90432 28.7023C9.80409 28.6037 9.71639 28.5174 9.62868 28.4188C9.27786 28.0244 8.97716 27.5684 8.76416 27.0877C8.55116 26.607 8.40081 26.0893 8.32563 25.5717C8.23793 25.0663 8.21287 24.5363 8.33816 24.0187Z" fill="#C2BAB0"/>
<path d="M40.0371 14.7615C40.0747 15.2915 40.1248 15.7845 40.1749 16.2775C40.2251 16.7705 40.2501 17.2512 40.2626 17.7319C40.2877 18.2126 40.2626 18.6933 40.2376 19.174C40.2251 19.2972 40.2125 19.4205 40.2125 19.5437L40.1749 19.9135L40.1624 20.0984C40.1499 20.16 40.1373 20.2216 40.1373 20.2832C40.1123 20.4065 40.0998 20.5421 40.0872 20.6777C40.1749 20.5791 40.2501 20.4681 40.3253 20.3572C40.3629 20.3079 40.4005 20.2463 40.4381 20.197L40.5258 20.0244C40.5884 19.9012 40.6511 19.7902 40.7012 19.667C40.7513 19.5437 40.7889 19.4205 40.8265 19.2849C40.9643 18.7795 41.0395 18.2372 41.0144 17.7072C40.9893 17.1773 40.9016 16.6596 40.7513 16.1542C40.5884 15.6612 40.3629 15.1805 40.0371 14.7615Z" fill="#C2BAB0"/>
<path d="M42.4047 17.8798C42.3546 18.4098 42.317 18.9028 42.2669 19.3958C42.2293 19.8888 42.1666 20.3695 42.104 20.8502C42.0413 21.3309 41.9411 21.7992 41.8283 22.2676C41.7908 22.3785 41.7657 22.5018 41.7406 22.625L41.6279 22.9825L41.5778 23.1674C41.5527 23.229 41.5402 23.2906 41.5151 23.3522C41.4775 23.4755 41.4399 23.5987 41.4023 23.722C41.5026 23.6357 41.6028 23.5494 41.6905 23.4508C41.7406 23.4015 41.7908 23.3522 41.8283 23.3029L41.9536 23.1427C42.0288 23.0318 42.1165 22.9332 42.1792 22.8099C42.2418 22.699 42.3045 22.5757 42.3671 22.4648C42.5926 21.9841 42.768 21.4665 42.8307 20.9488C42.9059 20.4311 42.9059 19.9011 42.8432 19.3711C42.7931 18.8658 42.6553 18.3481 42.4047 17.8798Z" fill="#C2BAB0"/>
</g>
</svg>
